<?xml version="1.0" encoding="UTF-8" standalone="no"?>
<!-- Created with Inkscape (http://www.inkscape.org/) -->

<svg
   xmlns:dc="http://purl.org/dc/elements/1.1/"
   xmlns:cc="http://creativecommons.org/ns#"
   xmlns:rdf="http://www.w3.org/1999/02/22-rdf-syntax-ns#"
   xmlns:svg="http://www.w3.org/2000/svg"
   xmlns="http://www.w3.org/2000/svg"
   xmlns:sodipodi="http://sodipodi.sourceforge.net/DTD/sodipodi-0.dtd"
   xmlns:inkscape="http://www.inkscape.org/namespaces/inkscape"
   width="199.53329mm"
   height="136.83459mm"
   viewBox="0 0 707.00774 484.84699"
   id="svg7763"
   version="1.1"
   inkscape:version="0.91 r13725"
   sodipodi:docname="education-icon.svg">
  <defs
     id="defs7765" />
  <sodipodi:namedview
     id="base"
     pagecolor="#ffffff"
     bordercolor="#666666"
     borderopacity="1.0"
     inkscape:pageopacity="0.0"
     inkscape:pageshadow="2"
     inkscape:zoom="0.35"
     inkscape:cx="-223.45259"
     inkscape:cy="258.48302"
     inkscape:document-units="px"
     inkscape:current-layer="layer1"
     showgrid="false"
     fit-margin-top="0"
     fit-margin-left="0"
     fit-margin-right="0"
     fit-margin-bottom="0"
     inkscape:window-width="1024"
     inkscape:window-height="693"
     inkscape:window-x="0"
     inkscape:window-y="25"
     inkscape:window-maximized="1" />
  <metadata
     id="metadata7768">
    <rdf:RDF>
      <cc:Work
         rdf:about="">
        <dc:format>image/svg+xml</dc:format>
        <dc:type
           rdf:resource="http://purl.org/dc/dcmitype/StillImage" />
        <dc:title></dc:title>
      </cc:Work>
    </rdf:RDF>
  </metadata>
  <g
     inkscape:label="Layer 1"
     inkscape:groupmode="layer"
     id="layer1"
     transform="translate(-49.687171,-228.70956)">
    <path
       style="fill:#000000;fill-opacity:1"
       d="M 94.159886,711.51931 C 84.257858,707.86985 59.368884,694.64261 53.99527,690.17383 l -4.308099,-3.58268 13.792841,-15.47084 c 16.636642,-18.66062 25.863964,-31.48399 33.446784,-46.48166 7.486734,-14.8076 15.760654,-40.36356 18.709974,-57.79018 2.19123,-12.94726 2.19583,-14.0953 0.0613,-15.28985 -16.41411,-9.18582 -23.393173,-29.5353 -15.60964,-45.51454 4.12068,-8.45957 5.52754,-10.20466 12.41294,-15.39718 4.23006,-3.19003 5.29264,-4.92132 5.29264,-8.6234 0,-8.38654 5.58074,-37.86676 9.34611,-49.37074 4.33695,-13.25025 8.78873,-22.43258 16.11311,-33.2352 l 5.30924,-7.83053 -35.49627,-11.71525 C 70.699965,365.88917 66.42962,364.03066 64.178172,358.59517 c -2.237899,-5.40276 -0.653493,-12.0357 3.691316,-15.45332 3.987266,-3.13638 336.689912,-114.43229 342.078402,-114.43229 5.4367,0 338.1098,111.31059 342.1343,114.47625 6.34044,4.9874 6.10415,15.57709 -0.46005,20.6181 -1.23165,0.94584 -78.60312,27.18913 -171.93657,58.31839 l -169.6972,56.59867 -92.37769,-30.74917 c -89.94163,-29.93828 -92.25905,-30.79967 -87.87812,-32.66475 43.78357,-18.63989 127.36503,-51.16807 166.10162,-64.64332 25.73541,-8.95255 29.6388,-11.93102 29.6388,-22.61588 0,-5.47625 -0.73706,-7.2071 -4.79866,-11.2687 -3.81322,-3.81322 -5.92662,-4.79866 -10.29122,-4.79866 -10.88733,0 -64.29448,19.78436 -174.03392,64.46981 -56.32318,22.9346 -72.14796,38.39413 -81.15638,79.28335 -1.82075,8.26439 -3.74029,19.00803 -4.26564,23.87478 l -0.9552,8.84865 5.71288,5.54415 c 7.35859,7.14127 10.14598,12.67031 11.11349,22.04464 1.06904,10.358 -1.67636,19.09013 -8.40545,26.73478 l -5.60155,6.36372 2.52505,20.08531 c 3.66246,29.13253 3.67632,76.02108 0.0261,88.53685 -6.27148,21.50396 -20.1925,41.59879 -34.91333,50.39695 -9.96043,5.95304 -16.83835,6.83168 -26.269319,3.35583 z M 357.72714,627.48955 c -73.36988,-8.4788 -128.66939,-27.401 -152.33055,-52.12397 l -4.84222,-5.05952 4.55465,-6.34223 c 5.79058,-8.06323 10.06959,-20.4453 10.06959,-29.13811 0,-17.03328 -7.32869,-34.38684 -18.63352,-44.12227 l -6.76979,-5.82994 -6.9e-4,-9.60098 c -5.9e-4,-8.31846 3.54209,-29.21174 4.95317,-29.21174 0.27142,0 47.06041,15.56002 103.97553,34.57782 85.44104,28.54953 104.83536,34.57475 111.24458,34.56021 6.35233,-0.0144 26.97793,-6.4243 113.53426,-35.2835 58.17444,-19.39624 106.28457,-35.2659 106.91141,-35.2659 0.62681,0 1.13347,23.65812 1.12589,52.57359 l -0.0141,52.5736 -3.55425,7.63532 c -15.36697,33.01243 -74.03861,58.87243 -157.31422,69.33765 -19.32657,2.42876 -94.00253,2.90494 -112.90973,0.71997 z"
       id="path8322"
       inkscape:connector-curvature="0" />
  </g>
</svg>
